# xmcd
#
# Track frame offsets: 
#        150
#        15505
#        33780
#        49732
#        65050
#        79542
#
# Disc length: 1250 seconds
#
# Revision: 0
# Processed by: cddbd v1.4PL0 Copyright (c) Steve Scherf et al.
# Submitted via: ExactAudioCopy v0.90b3
#
DISCID=3e04e006
DTITLE=Rhett Akins - Career Sampler
DYEAR=1900
DGENRE=Country
TTITLE0=Brake For Brunettes
TTITLE1=That Ain't My Truck
TTITLE2=She Said Yes
TTITLE3=Don't Get Me Started
TTITLE4=More Than Everything
TTITLE5=Better Than It Used To Be
EXTD=
EXTT0=
EXTT1=
EXTT2=
EXTT3=
EXTT4=
EXTT5=
PLAYORDER=
